<svg xmlns="http://www.w3.org/2000/svg" xmlns:xlink="http://www.w3.org/1999/xlink" version="1.1" width="256" height="256" viewBox="0 0 256 256" xml:space="preserve">

<defs>
</defs>
<g style="stroke: none; stroke-width: 0; stroke-dasharray: none; stroke-linecap: butt; stroke-linejoin: miter; stroke-miterlimit: 10; fill: none; fill-rule: nonzero; opacity: 1;" transform="translate(1.4065934065934016 1.4065934065934016) scale(2.81 2.81)" >
	<path d="M 84.609 89 H 5.391 c -2.113 0 -3.826 -1.713 -3.826 -3.826 V 12.897 c 0 -2.113 1.713 -3.826 3.826 -3.826 h 79.219 c 2.113 0 3.826 1.713 3.826 3.826 v 72.277 C 88.435 87.287 86.722 89 84.609 89 z" style="stroke: none; stroke-width: 1; stroke-dasharray: none; stroke-linecap: butt; stroke-linejoin: miter; stroke-miterlimit: 10; fill: transparent; fill-rule: nonzero; opacity: 1;" transform=" matrix(1 0 0 1 0 0) " stroke-linecap="round" />
	<path d="M 84.609 90 H 5.391 c -2.661 0 -4.826 -2.165 -4.826 -4.826 V 12.897 c 0 -2.661 2.165 -4.826 4.826 -4.826 h 79.219 c 2.661 0 4.826 2.165 4.826 4.826 v 72.277 C 89.436 87.835 87.271 90 84.609 90 z M 5.391 10.071 c -1.558 0 -2.826 1.268 -2.826 2.826 v 72.277 C 2.565 86.732 3.833 88 5.391 88 h 79.219 c 1.559 0 2.826 -1.268 2.826 -2.826 V 12.897 c 0 -1.558 -1.268 -2.826 -2.826 -2.826 H 5.391 z" style="stroke: none; stroke-width: 1; stroke-dasharray: none; stroke-linecap: butt; stroke-linejoin: miter; stroke-miterlimit: 10; fill: rgb(0,0,0); fill-rule: nonzero; opacity: 1;" transform=" matrix(1 0 0 1 0 0) " stroke-linecap="round" />
	<path d="M 88.435 28.468 v -15.57 c 0 -2.113 -1.713 -3.826 -3.826 -3.826 H 5.391 c -2.113 0 -3.826 1.713 -3.826 3.826 v 15.571 H 88.435 z" style="stroke: none; stroke-width: 1; stroke-dasharray: none; stroke-linecap: butt; stroke-linejoin: miter; stroke-miterlimit: 10; fill: transparent; fill-rule: nonzero; opacity: 1;" transform=" matrix(1 0 0 1 0 0) " stroke-linecap="round" />
	<path d="M 89.436 29.468 H 0.565 V 12.897 c 0 -2.661 2.165 -4.826 4.826 -4.826 h 79.219 c 2.661 0 4.826 2.165 4.826 4.826 V 29.468 z M 2.565 27.468 h 84.871 V 12.897 c 0 -1.558 -1.268 -2.826 -2.826 -2.826 H 5.391 c -1.558 0 -2.826 1.268 -2.826 2.826 V 27.468 z" style="stroke: none; stroke-width: 1; stroke-dasharray: none; stroke-linecap: butt; stroke-linejoin: miter; stroke-miterlimit: 10; fill: rgb(0,0,0); fill-rule: nonzero; opacity: 1;" transform=" matrix(1 0 0 1 0 0) " stroke-linecap="round" />
	<path d="M 23.976 16.352 L 23.976 16.352 c -2.28 0 -4.128 -1.848 -4.128 -4.128 V 5.128 c 0 -2.28 1.848 -4.128 4.128 -4.128 h 0 c 2.28 0 4.128 1.848 4.128 4.128 v 7.096 C 28.104 14.504 26.256 16.352 23.976 16.352 z" style="stroke: none; stroke-width: 1; stroke-dasharray: none; stroke-linecap: butt; stroke-linejoin: miter; stroke-miterlimit: 10; fill: transparent; fill-rule: nonzero; opacity: 1;" transform=" matrix(1 0 0 1 0 0) " stroke-linecap="round" />
	<path d="M 66.024 16.352 L 66.024 16.352 c -2.28 0 -4.128 -1.848 -4.128 -4.128 V 5.128 c 0 -2.28 1.848 -4.128 4.128 -4.128 h 0 c 2.28 0 4.128 1.848 4.128 4.128 v 7.096 C 70.152 14.504 68.304 16.352 66.024 16.352 z" style="stroke: none; stroke-width: 1; stroke-dasharray: none; stroke-linecap: butt; stroke-linejoin: miter; stroke-miterlimit: 10; fill: transparent; fill-rule: nonzero; opacity: 1;" transform=" matrix(1 0 0 1 0 0) " stroke-linecap="round" />
	<path d="M 23.976 17.352 c -2.828 0 -5.128 -2.3 -5.128 -5.128 V 5.128 C 18.848 2.3 21.148 0 23.976 0 s 5.128 2.3 5.128 5.128 v 7.096 C 29.104 15.052 26.803 17.352 23.976 17.352 z M 23.976 2 c -1.725 0 -3.128 1.403 -3.128 3.128 v 7.096 c 0 1.725 1.403 3.128 3.128 3.128 s 3.128 -1.403 3.128 -3.128 V 5.128 C 27.104 3.403 25.7 2 23.976 2 z" style="stroke: none; stroke-width: 1; stroke-dasharray: none; stroke-linecap: butt; stroke-linejoin: miter; stroke-miterlimit: 10; fill: rgb(0,0,0); fill-rule: nonzero; opacity: 1;" transform=" matrix(1 0 0 1 0 0) " stroke-linecap="round" />
	<path d="M 66.024 17.352 c -2.827 0 -5.128 -2.3 -5.128 -5.128 V 5.128 C 60.896 2.3 63.197 0 66.024 0 s 5.128 2.3 5.128 5.128 v 7.096 C 71.152 15.052 68.852 17.352 66.024 17.352 z M 66.024 2 c -1.725 0 -3.128 1.403 -3.128 3.128 v 7.096 c 0 1.725 1.403 3.128 3.128 3.128 s 3.128 -1.403 3.128 -3.128 V 5.128 C 69.152 3.403 67.749 2 66.024 2 z" style="stroke: none; stroke-width: 1; stroke-dasharray: none; stroke-linecap: butt; stroke-linejoin: miter; stroke-miterlimit: 10; fill: rgb(0,0,0); fill-rule: nonzero; opacity: 1;" transform=" matrix(1 0 0 1 0 0) " stroke-linecap="round" />
	<path d="M 46.991 39.712 l 4.758 9.641 c 0.323 0.655 0.949 1.11 1.672 1.215 l 10.64 1.546 c 1.821 0.265 2.548 2.503 1.231 3.787 l -7.699 7.505 c -0.523 0.51 -0.762 1.245 -0.639 1.965 l 1.817 10.597 c 0.311 1.814 -1.593 3.197 -3.222 2.341 l -9.516 -5.003 c -0.647 -0.34 -1.42 -0.34 -2.067 0 l -9.516 5.003 c -1.629 0.856 -3.533 -0.527 -3.222 -2.341 l 1.817 -10.597 c 0.124 -0.72 -0.115 -1.455 -0.639 -1.965 l -7.699 -7.505 c -1.318 -1.285 -0.591 -3.523 1.231 -3.787 l 10.64 -1.546 c 0.723 -0.105 1.348 -0.559 1.672 -1.215 l 4.758 -9.641 C 43.823 38.062 46.177 38.062 46.991 39.712 z" style="stroke: none; stroke-width: 1; stroke-dasharray: none; stroke-linecap: butt; stroke-linejoin: miter; stroke-miterlimit: 10; fill: transparent; fill-rule: nonzero; opacity: 1;" transform=" matrix(1 0 0 1 0 0) " stroke-linecap="round" />
	<path d="M 33.414 79.567 c -0.665 0 -1.325 -0.209 -1.889 -0.618 c -0.999 -0.727 -1.49 -1.934 -1.282 -3.15 l 1.818 -10.597 c 0.068 -0.396 -0.063 -0.8 -0.351 -1.08 l -7.699 -7.505 c -0.884 -0.861 -1.196 -2.126 -0.814 -3.3 c 0.381 -1.175 1.377 -2.015 2.6 -2.192 l 10.64 -1.546 c 0.397 -0.059 0.741 -0.308 0.918 -0.668 l 4.758 -9.641 c 0.547 -1.107 1.653 -1.795 2.888 -1.795 c 1.235 0 2.342 0.688 2.888 1.795 l 4.758 9.641 c 0.178 0.36 0.521 0.609 0.92 0.668 l 10.639 1.546 c 1.223 0.178 2.219 1.018 2.601 2.192 c 0.381 1.174 0.068 2.438 -0.815 3.301 l -7.698 7.504 c -0.288 0.281 -0.42 0.685 -0.352 1.079 l 1.817 10.598 c 0.209 1.218 -0.282 2.425 -1.281 3.15 s -2.299 0.818 -3.392 0.244 l -9.516 -5.003 c -0.355 -0.186 -0.779 -0.187 -1.136 0.001 l -9.516 5.002 C 34.44 79.443 33.926 79.567 33.414 79.567 z M 45 39.475 c -0.475 0 -0.884 0.254 -1.094 0.68 l -4.758 9.641 c -0.469 0.95 -1.375 1.609 -2.424 1.762 l -10.641 1.546 c -0.47 0.068 -0.838 0.379 -0.985 0.831 c -0.146 0.452 -0.031 0.919 0.309 1.251 l 7.7 7.505 c 0.759 0.74 1.105 1.806 0.926 2.85 l -1.817 10.597 c -0.081 0.469 0.101 0.915 0.485 1.194 s 0.865 0.313 1.285 0.093 l 9.517 -5.003 c 0.938 -0.494 2.059 -0.493 2.997 -0.001 l 9.517 5.004 c 0.422 0.22 0.901 0.187 1.285 -0.093 c 0.385 -0.279 0.566 -0.726 0.486 -1.194 L 55.969 65.54 c -0.181 -1.044 0.166 -2.11 0.927 -2.851 l 7.697 -7.504 c 0.341 -0.332 0.456 -0.799 0.31 -1.251 s -0.516 -0.763 -0.985 -0.831 l -10.64 -1.546 c -1.05 -0.153 -1.956 -0.812 -2.425 -1.762 l -4.758 -9.641 C 45.884 39.729 45.475 39.475 45 39.475 z" style="stroke: none; stroke-width: 1; stroke-dasharray: none; stroke-linecap: butt; stroke-linejoin: miter; stroke-miterlimit: 10; fill: rgb(0,0,0); fill-rule: nonzero; opacity: 1;" transform=" matrix(1 0 0 1 0 0) " stroke-linecap="round" />
</g>
</svg>